<?xml version="1.0" encoding="UTF-8"?>
<!DOCTYPE svg PUBLIC "-//W3C//DTD SVG 1.1//EN" "http://www.w3.org/Graphics/SVG/1.1/DTD/svg11.dtd">
<!-- Creator: CorelDRAW X8 -->
<svg xmlns="http://www.w3.org/2000/svg" xml:space="preserve" width="297mm" height="210mm" version="1.1" style="shape-rendering:geometricPrecision; text-rendering:geometricPrecision; image-rendering:optimizeQuality; fill-rule:evenodd; clip-rule:evenodd"
viewBox="0 0 29700 21000"
 xmlns:xlink="http://www.w3.org/1999/xlink">
 <defs>
  <style type="text/css">
   <![CDATA[
    .fil0 {fill:white}
    .fil2 {fill:url(#id0)}
    .fil1 {fill:url(#id1)}
    .fil3 {fill:url(#id2)}
   ]]>
  </style>
  <linearGradient id="id0" gradientUnits="userSpaceOnUse" x1="16276.3" y1="6195.7" x2="16276.3" y2="8338.12">
   <stop offset="0" style="stop-opacity:1; stop-color:#00AEA5"/>
   <stop offset="1" style="stop-opacity:1; stop-color:#00776F"/>
  </linearGradient>
  <linearGradient id="id1" gradientUnits="userSpaceOnUse" x1="16055.3" y1="9762.02" x2="14201.9" y2="8656.44">
   <stop offset="0" style="stop-opacity:1; stop-color:#CCD528"/>
   <stop offset="1" style="stop-opacity:1; stop-color:#8A9218"/>
  </linearGradient>
  <linearGradient id="id2" gradientUnits="userSpaceOnUse" x1="13086.1" y1="7765.95" x2="14920" y2="6652.08">
   <stop offset="0" style="stop-opacity:1; stop-color:#85C141"/>
   <stop offset="1" style="stop-opacity:1; stop-color:#568429"/>
  </linearGradient>
 </defs>
 <g id="Camada_x0020_1">
  <metadata id="CorelCorpID_0Corel-Layer"/>
  <path class="fil0" d="M12921 14469c-600,0 -953,-368 -953,-958 0,-662 435,-957 933,-957 261,0 532,77 605,116 154,-351 116,-832 -643,-832 -972,0 -1813,585 -1813,1732 0,866 536,1624 1755,1624 387,0 696,-73 817,-136l-121 -680c-135,52 -372,91 -580,91zm2351 729l103 0c971,-23 1579,-685 1579,-1715 0,-870 -532,-1649 -1582,-1649l-19 0c-989,9 -1600,759 -1600,1702 0,889 538,1639 1519,1662zm3482 0l103 0c971,-23 1579,-685 1579,-1715 0,-870 -532,-1649 -1581,-1649l-20 0c-990,10 -1601,759 -1601,1702 0,889 540,1639 1520,1662zm4517 -1012l0 -12c-2,-385 -243,-678 -640,-789l0 -8c384,-146 533,-412 533,-683 0,-319 -183,-552 -440,-673 -213,-106 -448,-146 -798,-157 -62,-1 -128,-1 -198,-1 -402,0 -831,33 -1030,73l0 3191c173,34 464,58 861,58 132,0 254,-4 367,-12 478,-31 781,-130 977,-278 216,-163 366,-404 368,-709zm-14785 -1013c-412,-154 -585,-217 -585,-381 0,-145 145,-242 411,-242 324,0 646,120 706,155 123,-335 194,-865 -697,-865 -822,0 -1310,445 -1310,1019 0,484 368,784 919,982 367,126 513,213 513,372 0,165 -146,266 -446,266 -328,0 -648,-101 -845,-203l-165 721c184,96 565,199 958,199 953,0 1387,-479 1387,-1041 0,-454 -260,-764 -846,-982zm1272 -1284l0 3257 875 0 0 -2726c0,-410 -222,-531 -875,-531zm12168 2651c-36,5 -73,6 -111,6 -111,0 -189,0 -251,-9l0 -779 207 0c54,0 106,3 155,8 249,31 425,143 425,374 0,252 -185,373 -425,400zm-362 -2030c58,-9 140,-20 285,-20 27,0 53,3 77,4 244,20 363,135 363,307 0,168 -118,286 -363,325 -56,8 -119,13 -188,13l-174 0 0 -629zm-2719 1997l-10 0c-421,0 -682,-406 -676,-990 0,-567 255,-992 676,-992 425,0 678,425 678,986 0,590 -247,996 -668,996zm-3482 0l-10 0c-421,0 -681,-406 -677,-990 0,-567 256,-992 677,-992 426,0 677,425 677,986 0,590 -247,996 -667,996z"/>
  <path class="fil1" d="M15128 11055l2 0c99,0 195,-50 252,-135l0 0 1483 -2568 -72 0 -2440 0 -481 829 1012 1742c25,37 57,67 96,91l0 0c46,27 98,40 148,41z"/>
  <path class="fil2" d="M17616 6180l-2963 0 1258 2172 954 0 1004 -1744c19,-38 31,-82 31,-128l0 0c0,-160 -127,-291 -284,-300z"/>
  <path class="fil3" d="M12639 6180c-43,3 -86,15 -125,40l0 0c-96,54 -151,156 -151,260l0 0c0,44 12,90 32,135l0 0 1477 2566 481 -829 779 -1346 -479 -826 -2014 0z"/>
 </g>
</svg>
