<?xml version="1.0" encoding="UTF-8"?>
<!DOCTYPE svg PUBLIC "-//W3C//DTD SVG 1.1//EN" "http://www.w3.org/Graphics/SVG/1.1/DTD/svg11.dtd">
<!-- Creator: CorelDRAW X8 -->
<svg xmlns="http://www.w3.org/2000/svg" xml:space="preserve" width="27.2401mm" height="29.0562mm" version="1.1" style="shape-rendering:geometricPrecision; text-rendering:geometricPrecision; image-rendering:optimizeQuality; fill-rule:evenodd; clip-rule:evenodd"
viewBox="0 0 346 369"
 xmlns:xlink="http://www.w3.org/1999/xlink">
 <defs>
  <style type="text/css">
   <![CDATA[
    .fil0 {fill:#373435;fill-rule:nonzero}
   ]]>
  </style>
 </defs>
 <g id="Camada_x0020_1">
  <metadata id="CorelCorpID_0Corel-Layer"/>
  <g id="_2870244446320">
   <path class="fil0" d="M127 242c-13,0 -23,-10 -23,-23l11 0c0,6 5,12 12,12 6,0 11,-6 11,-12 0,-4 -8,-9 -14,-12 -3,-2 -20,-10 -20,-23 0,-12 10,-23 23,-23 13,0 23,11 23,23l-12 0c0,-6 -5,-11 -11,-11 -7,0 -12,5 -12,11 0,4 9,10 14,13 4,1 21,9 21,22 0,13 -10,23 -23,23z"/>
   <polygon class="fil0" points="121,167 133,167 133,150 121,150 "/>
   <polygon class="fil0" points="121,254 133,254 133,236 121,236 "/>
   <polygon class="fil0" points="161,208 173,208 173,196 161,196 "/>
   <polygon class="fil0" points="81,208 92,208 92,196 81,196 "/>
   <path class="fil0" d="M150 369l-110 0c-22,0 -40,-18 -40,-40l0 -93c0,-101 45,-125 74,-141 8,-4 15,-8 20,-13l8 9c-6,5 -14,10 -23,14 -28,16 -67,37 -67,131l0 93c0,15 12,28 28,28l110 0 0 12z"/>
   <path class="fil0" d="M254 231l-12 0c0,-94 -38,-112 -66,-126 -10,-4 -18,-8 -24,-14l8 -9c4,5 12,9 21,13 29,14 73,35 73,136z"/>
   <path class="fil0" d="M98 69l0 12 58 0 0 -12 -58 0zm58 23l-58 0c-6,0 -12,-5 -12,-11l0 -12c0,-6 6,-11 12,-11l58 0c6,0 11,5 11,11l0 12c0,6 -5,11 -11,11z"/>
   <path class="fil0" d="M107 58l39 0 19 -38 -15 -8 -21 10c-1,1 -3,1 -5,0l-20 -10 -16 8 19 38zm43 11l-46 0c-2,0 -4,-1 -5,-3l-23 -46c-2,-3 -1,-6 2,-8l23 -11c2,-1 4,-1 5,0l21 10 20 -10c2,-1 4,-1 5,0l24 11c2,2 4,5 2,8l-23 46c-1,2 -3,3 -5,3z"/>
   <path class="fil0" d="M161 81l0 -12c10,0 18,-8 18,-17l11 0c0,16 -13,29 -29,29z"/>
   <path class="fil0" d="M92 81c-16,0 -29,-13 -29,-29l12 0c0,9 8,17 17,17l0 12z"/>
   <path class="fil0" d="M127 138c-35,0 -64,29 -64,64 0,35 29,63 64,63 35,0 63,-28 63,-63 0,-35 -28,-64 -63,-64zm0 139c-41,0 -75,-34 -75,-75 0,-42 34,-75 75,-75 41,0 75,33 75,75 0,41 -34,75 -75,75z"/>
   <path class="fil0" d="M173 346l0 11 46 0 0 -11 -46 0zm46 23l-46 0c-6,0 -12,-5 -12,-12l0 -11c0,-6 6,-12 12,-12l46 0c6,0 12,6 12,12l0 11c0,7 -6,12 -12,12z"/>
   <path class="fil0" d="M173 323l0 11 46 0 0 -11 -46 0zm46 23l-46 0c-6,0 -12,-5 -12,-12l0 -11c0,-7 6,-12 12,-12l46 0c6,0 12,5 12,12l0 11c0,7 -6,12 -12,12z"/>
   <path class="fil0" d="M173 300l0 11 46 0 0 -11 -46 0zm46 23l-46 0c-6,0 -12,-5 -12,-12l0 -11c0,-7 6,-12 12,-12l46 0c6,0 12,5 12,12l0 11c0,7 -6,12 -12,12z"/>
   <path class="fil0" d="M231 346l0 11 46 0 0 -11 -46 0zm46 23l-46 0c-7,0 -12,-5 -12,-12l0 -11c0,-6 5,-12 12,-12l46 0c6,0 11,6 11,12l0 11c0,7 -5,12 -11,12z"/>
   <path class="fil0" d="M231 323l0 11 46 0 0 -11 -46 0zm46 23l-46 0c-7,0 -12,-5 -12,-12l0 -11c0,-7 5,-12 12,-12l46 0c6,0 11,5 11,12l0 11c0,7 -5,12 -11,12z"/>
   <path class="fil0" d="M231 300l0 11 46 0 0 -11 -46 0zm46 23l-46 0c-7,0 -12,-5 -12,-12l0 -11c0,-7 5,-12 12,-12l46 0c6,0 11,5 11,12l0 11c0,7 -5,12 -11,12z"/>
   <path class="fil0" d="M231 277l0 11 46 0 0 -11 -46 0zm46 23l-46 0c-7,0 -12,-5 -12,-12l0 -11c0,-7 5,-12 12,-12l46 0c6,0 11,5 11,12l0 11c0,7 -5,12 -11,12z"/>
   <path class="fil0" d="M231 254l0 11 46 0 0 -11 -46 0zm46 23l-46 0c-7,0 -12,-5 -12,-12l0 -11c0,-7 5,-12 12,-12l46 0c6,0 11,5 11,12l0 11c0,7 -5,12 -11,12z"/>
   <path class="fil0" d="M288 346l0 11 46 0 0 -11 -46 0zm46 23l-46 0c-6,0 -11,-5 -11,-12l0 -11c0,-6 5,-12 11,-12l46 0c7,0 12,6 12,12l0 11c0,7 -5,12 -12,12z"/>
   <path class="fil0" d="M288 323l0 11 46 0 0 -11 -46 0zm46 23l-46 0c-6,0 -11,-5 -11,-12l0 -11c0,-7 5,-12 11,-12l46 0c7,0 12,5 12,12l0 11c0,7 -5,12 -12,12z"/>
   <path class="fil0" d="M288 300l0 11 46 0 0 -11 -46 0zm46 23l-46 0c-6,0 -11,-5 -11,-12l0 -11c0,-7 5,-12 11,-12l46 0c7,0 12,5 12,12l0 11c0,7 -5,12 -12,12z"/>
   <path class="fil0" d="M288 277l0 11 46 0 0 -11 -46 0zm46 23l-46 0c-6,0 -11,-5 -11,-12l0 -11c0,-7 5,-12 11,-12l46 0c7,0 12,5 12,12l0 11c0,7 -5,12 -12,12z"/>
   <path class="fil0" d="M288 254l0 11 46 0 0 -11 -46 0zm46 23l-46 0c-6,0 -11,-5 -11,-12l0 -11c0,-7 5,-12 11,-12l46 0c7,0 12,5 12,12l0 11c0,7 -5,12 -12,12z"/>
   <path class="fil0" d="M288 231l0 11 46 0 0 -11 -46 0zm46 23l-46 0c-6,0 -11,-6 -11,-12l0 -11c0,-7 5,-12 11,-12l46 0c7,0 12,5 12,12l0 11c0,6 -5,12 -12,12z"/>
   <path class="fil0" d="M288 208l0 11 46 0 0 -11 -46 0zm46 23l-46 0c-6,0 -11,-6 -11,-12l0 -11c0,-7 5,-12 11,-12l46 0c7,0 12,5 12,12l0 11c0,6 -5,12 -12,12z"/>
   <path class="fil0" d="M288 150l0 11 46 0 0 -11 -46 0zm46 23l-46 0c-6,0 -11,-5 -11,-12l0 -11c0,-6 5,-12 11,-12l46 0c7,0 12,6 12,12l0 11c0,7 -5,12 -12,12z"/>
   <polygon class="fil0" points="294,127 306,127 306,81 294,81 "/>
   <polygon class="fil0" points="317,92 329,92 329,46 317,46 "/>
   <polygon class="fil0" points="294,69 306,69 306,58 294,58 "/>
   <polygon class="fil0" points="317,115 329,115 329,104 317,104 "/>
  </g>
 </g>
</svg>
