<?xml version="1.0" encoding="UTF-8"?>
<!DOCTYPE svg PUBLIC "-//W3C//DTD SVG 1.1//EN" "http://www.w3.org/Graphics/SVG/1.1/DTD/svg11.dtd">
<!-- Creator: CorelDRAW X8 -->
<svg xmlns="http://www.w3.org/2000/svg" xml:space="preserve" width="29.0562mm" height="26.3322mm" version="1.1" style="shape-rendering:geometricPrecision; text-rendering:geometricPrecision; image-rendering:optimizeQuality; fill-rule:evenodd; clip-rule:evenodd"
viewBox="0 0 702 636"
 xmlns:xlink="http://www.w3.org/1999/xlink">
 <defs>
  <style type="text/css">
   <![CDATA[
    .fil0 {fill:#373435;fill-rule:nonzero}
   ]]>
  </style>
 </defs>
 <g id="Camada_x0020_1">
  <metadata id="CorelCorpID_0Corel-Layer"/>
  <g id="_2870254459520">
   <path class="fil0" d="M44 296c-12,0 -22,10 -22,22 0,12 10,22 22,22 12,0 22,-10 22,-22 0,-12 -10,-22 -22,-22zm0 66c-24,0 -44,-20 -44,-44 0,-24 20,-44 44,-44 24,0 44,20 44,44 0,24 -20,44 -44,44z"/>
   <path class="fil0" d="M658 296c-12,0 -22,10 -22,22 0,12 10,22 22,22 12,0 22,-10 22,-22 0,-12 -10,-22 -22,-22zm0 66c-24,0 -44,-20 -44,-44 0,-24 20,-44 44,-44 24,0 44,20 44,44 0,24 -20,44 -44,44z"/>
   <path class="fil0" d="M603 154l-66 0 0 -22 55 0 0 -55 22 0 0 66c0,6 -5,11 -11,11z"/>
   <path class="fil0" d="M110 559l-22 0 0 -65c0,-6 5,-11 11,-11l66 0 0 22 -55 0 0 54z"/>
   <path class="fil0" d="M332 503c14,2 24,2 38,0l15 -50c1,-4 4,-6 7,-8 4,-1 8,0 10,2l42 32c12,-6 22,-14 32,-22l-18 -50c-1,-4 -1,-7 1,-10 2,-3 6,-5 9,-5l53 2c6,-12 10,-24 12,-37l-43 -30c-3,-2 -5,-5 -5,-9 0,-4 2,-7 5,-9l43 -30c-2,-12 -6,-25 -12,-37l-53 2c-3,0 -7,-2 -9,-5 -2,-2 -2,-6 -1,-10l18 -50c-10,-8 -20,-16 -32,-22l-42 32c-2,2 -6,3 -10,2 -3,-1 -6,-4 -7,-8l-15 -50c-14,-2 -24,-2 -38,0l-15 50c-1,4 -4,7 -7,8 -4,1 -8,0 -10,-2l-42 -32c-11,6 -22,14 -32,22l18 50c1,4 1,8 -1,10 -2,3 -6,5 -9,5l-53 -2c-5,12 -9,25 -12,37l43 30c3,2 5,5 5,9 0,4 -2,7 -5,9l-43 30c3,13 7,25 12,37l53 -2c3,0 7,2 9,5 2,3 2,6 1,10l-18 50c10,8 21,16 32,22l42 -32c2,-2 6,-3 10,-2 3,2 6,4 7,8l15 50zm19 24c-9,0 -18,-1 -29,-3 -5,0 -8,-3 -9,-8l-13 -42 -35 27c-3,3 -8,3 -12,1 -17,-9 -33,-21 -47,-34 -3,-3 -4,-8 -3,-12l15 -41 -44 1c-4,0 -8,-2 -10,-6 -9,-18 -15,-37 -18,-56 -1,-4 1,-9 4,-11l37 -25 -37 -25c-3,-2 -5,-6 -4,-11 3,-19 9,-38 18,-55 2,-4 6,-7 10,-7l44 2 -15 -42c-1,-4 0,-8 3,-11 14,-14 30,-26 47,-35 4,-2 9,-2 12,1l35 27 13 -42c1,-4 4,-7 9,-8 22,-3 36,-3 58,0 5,1 8,4 9,8l13 42 35 -27c3,-3 8,-3 12,-1 17,9 33,21 47,35 3,3 4,7 3,11l-15 42 44 -2c4,0 8,3 10,7 9,17 15,36 18,55 1,5 -1,9 -4,11l-37 25 37 25c3,2 5,7 4,11 -3,19 -9,38 -18,56 -2,4 -6,6 -10,6l-44 -1 15 41c1,4 0,9 -3,12 -14,13 -30,25 -47,34 -4,2 -9,2 -12,-1l-35 -27 -13 42c-1,5 -4,8 -9,8 -11,2 -20,3 -29,3z"/>
   <polygon class="fil0" points="55,439 77,439 77,417 55,417 "/>
   <polygon class="fil0" points="625,219 647,219 647,197 625,197 "/>
   <path class="fil0" d="M351 636c-104,0 -202,-51 -261,-136l18 -13c55,80 146,127 243,127 153,0 279,-114 295,-266l21 3c-16,162 -152,285 -316,285z"/>
   <path class="fil0" d="M57 286l-22 -2c17,-162 153,-284 316,-284 104,0 202,51 261,136l-18 13c-55,-80 -146,-127 -243,-127 -152,0 -278,114 -294,264z"/>
   <path class="fil0" d="M351 395c-24,0 -44,-20 -44,-44l22 0c0,12 10,22 22,22 12,0 22,-10 22,-22 0,-7 -16,-18 -26,-23 -7,-3 -40,-19 -40,-43 0,-24 20,-44 44,-44 24,0 44,20 44,44l-22 0c0,-12 -10,-22 -22,-22 -12,0 -22,10 -22,22 0,7 16,18 27,23 6,3 39,19 39,43 0,24 -20,44 -44,44z"/>
   <polygon class="fil0" points="340,252 362,252 362,219 340,219 "/>
   <polygon class="fil0" points="340,417 362,417 362,384 340,384 "/>
   <polygon class="fil0" points="417,329 439,329 439,307 417,307 "/>
   <polygon class="fil0" points="263,329 285,329 285,307 263,307 "/>
  </g>
 </g>
</svg>
