<?xml version="1.0" encoding="UTF-8"?>
<!DOCTYPE svg PUBLIC "-//W3C//DTD SVG 1.1//EN" "http://www.w3.org/Graphics/SVG/1.1/DTD/svg11.dtd">
<!-- Creator: CorelDRAW X8 -->
<svg xmlns="http://www.w3.org/2000/svg" xml:space="preserve" width="29.0562mm" height="25.4243mm" version="1.1" style="shape-rendering:geometricPrecision; text-rendering:geometricPrecision; image-rendering:optimizeQuality; fill-rule:evenodd; clip-rule:evenodd"
viewBox="0 0 4097 3585"
 xmlns:xlink="http://www.w3.org/1999/xlink">
 <defs>
  <style type="text/css">
   <![CDATA[
    .fil0 {fill:#373435;fill-rule:nonzero}
   ]]>
  </style>
 </defs>
 <g id="Camada_x0020_1">
  <metadata id="CorelCorpID_0Corel-Layer"/>
  <g id="_2870254460544">
   <path class="fil0" d="M3841 3585l-3393 0c-247,0 -448,-201 -448,-448l0 -2689 128 0 0 2689c0,177 144,320 320,320l3265 0 0 -832 128 0 0 960z"/>
   <path class="fil0" d="M3841 1729l-128 0 0 -833 -3265 0c-247,0 -448,-201 -448,-448 0,-247 201,-448 448,-448l3393 0 0 640 -128 0 0 -512 -3265 0c-176,0 -320,144 -320,320 0,177 144,320 320,320l3393 0 0 961z"/>
   <polygon class="fil0" points="512,512 3457,512 3457,384 512,384 "/>
   <path class="fil0" d="M2625 2049c-71,0 -128,57 -128,128 0,70 57,128 128,128 71,0 128,-58 128,-128 0,-71 -57,-128 -128,-128zm0 384c-141,0 -256,-115 -256,-256 0,-141 115,-256 256,-256 141,0 256,115 256,256 0,141 -115,256 -256,256z"/>
   <polygon class="fil0" points="3329,1152 3457,1152 3457,1024 3329,1024 "/>
   <polygon class="fil0" points="3073,1152 3201,1152 3201,1024 3073,1024 "/>
   <polygon class="fil0" points="2817,1152 2945,1152 2945,1024 2817,1024 "/>
   <polygon class="fil0" points="2561,1152 2689,1152 2689,1024 2561,1024 "/>
   <polygon class="fil0" points="2305,1152 2433,1152 2433,1024 2305,1024 "/>
   <polygon class="fil0" points="2049,1152 2177,1152 2177,1024 2049,1024 "/>
   <polygon class="fil0" points="1793,1152 1921,1152 1921,1024 1793,1024 "/>
   <polygon class="fil0" points="1537,1152 1665,1152 1665,1024 1537,1024 "/>
   <polygon class="fil0" points="1280,1152 1408,1152 1408,1024 1280,1024 "/>
   <polygon class="fil0" points="1024,1152 1152,1152 1152,1024 1024,1024 "/>
   <polygon class="fil0" points="768,1152 896,1152 896,1024 768,1024 "/>
   <polygon class="fil0" points="512,1152 640,1152 640,1024 512,1024 "/>
   <polygon class="fil0" points="3329,1152 3457,1152 3457,1024 3329,1024 "/>
   <polygon class="fil0" points="3073,1152 3201,1152 3201,1024 3073,1024 "/>
   <polygon class="fil0" points="2817,1152 2945,1152 2945,1024 2817,1024 "/>
   <polygon class="fil0" points="2561,1152 2689,1152 2689,1024 2561,1024 "/>
   <polygon class="fil0" points="2305,1152 2433,1152 2433,1024 2305,1024 "/>
   <polygon class="fil0" points="2049,1152 2177,1152 2177,1024 2049,1024 "/>
   <polygon class="fil0" points="1793,1152 1921,1152 1921,1024 1793,1024 "/>
   <polygon class="fil0" points="1537,1152 1665,1152 1665,1024 1537,1024 "/>
   <polygon class="fil0" points="1280,1152 1408,1152 1408,1024 1280,1024 "/>
   <polygon class="fil0" points="1024,1152 1152,1152 1152,1024 1024,1024 "/>
   <polygon class="fil0" points="768,1152 896,1152 896,1024 768,1024 "/>
   <polygon class="fil0" points="512,1152 640,1152 640,1024 512,1024 "/>
   <polygon class="fil0" points="3329,3329 3457,3329 3457,3201 3329,3201 "/>
   <polygon class="fil0" points="3073,3329 3201,3329 3201,3201 3073,3201 "/>
   <polygon class="fil0" points="2817,3329 2945,3329 2945,3201 2817,3201 "/>
   <polygon class="fil0" points="2561,3329 2689,3329 2689,3201 2561,3201 "/>
   <polygon class="fil0" points="2305,3329 2433,3329 2433,3201 2305,3201 "/>
   <polygon class="fil0" points="2049,3329 2177,3329 2177,3201 2049,3201 "/>
   <polygon class="fil0" points="1793,3329 1921,3329 1921,3201 1793,3201 "/>
   <polygon class="fil0" points="1537,3329 1665,3329 1665,3201 1537,3201 "/>
   <polygon class="fil0" points="1280,3329 1408,3329 1408,3201 1280,3201 "/>
   <polygon class="fil0" points="1024,3329 1152,3329 1152,3201 1024,3201 "/>
   <polygon class="fil0" points="768,3329 896,3329 896,3201 768,3201 "/>
   <polygon class="fil0" points="512,3329 640,3329 640,3201 512,3201 "/>
   <polygon class="fil0" points="3329,3329 3457,3329 3457,3201 3329,3201 "/>
   <polygon class="fil0" points="3073,3329 3201,3329 3201,3201 3073,3201 "/>
   <polygon class="fil0" points="2817,3329 2945,3329 2945,3201 2817,3201 "/>
   <polygon class="fil0" points="2561,3329 2689,3329 2689,3201 2561,3201 "/>
   <polygon class="fil0" points="2305,3329 2433,3329 2433,3201 2305,3201 "/>
   <polygon class="fil0" points="2049,3329 2177,3329 2177,3201 2049,3201 "/>
   <polygon class="fil0" points="1793,3329 1921,3329 1921,3201 1793,3201 "/>
   <polygon class="fil0" points="1537,3329 1665,3329 1665,3201 1537,3201 "/>
   <polygon class="fil0" points="1280,3329 1408,3329 1408,3201 1280,3201 "/>
   <polygon class="fil0" points="1024,3329 1152,3329 1152,3201 1024,3201 "/>
   <polygon class="fil0" points="768,3329 896,3329 896,3201 768,3201 "/>
   <polygon class="fil0" points="512,3329 640,3329 640,3201 512,3201 "/>
   <path class="fil0" d="M2625 1793c-212,0 -384,172 -384,384 0,212 172,384 384,384l1216 0c71,0 128,-58 128,-128l0 -675c-37,22 -81,35 -128,35l-1216 0zm1216 896l-1216 0c-282,0 -512,-230 -512,-512 0,-283 230,-512 512,-512l1216 0c71,0 128,-58 128,-128 0,-71 -57,-128 -128,-128l-64 0 0 -129 64 0c142,0 256,115 256,257l0 896c0,141 -114,256 -256,256z"/>
  </g>
 </g>
</svg>
