<?xml version="1.0" encoding="UTF-8"?>
<!DOCTYPE svg PUBLIC "-//W3C//DTD SVG 1.1//EN" "http://www.w3.org/Graphics/SVG/1.1/DTD/svg11.dtd">
<!-- Creator: CorelDRAW X8 -->
<svg xmlns="http://www.w3.org/2000/svg" xml:space="preserve" width="29.0562mm" height="29.0563mm" version="1.1" style="shape-rendering:geometricPrecision; text-rendering:geometricPrecision; image-rendering:optimizeQuality; fill-rule:evenodd; clip-rule:evenodd"
viewBox="0 0 1068 1068"
 xmlns:xlink="http://www.w3.org/1999/xlink">
 <defs>
  <style type="text/css">
   <![CDATA[
    .fil0 {fill:#373435;fill-rule:nonzero}
   ]]>
  </style>
 </defs>
 <g id="Camada_x0020_1">
  <metadata id="CorelCorpID_0Corel-Layer"/>
  <g id="_2870188651648">
   <path class="fil0" d="M258 921c-71,-47 -121,-110 -144,-182l32 -10c21,65 66,121 130,164l-18 28z"/>
   <path class="fil0" d="M534 1001c-47,0 -93,-6 -138,-18l9 -32c83,22 175,22 258,0l9 32c-44,12 -91,18 -138,18z"/>
   <path class="fil0" d="M810 921l-18 -28c90,-60 143,-149 143,-242 0,-100 -58,-192 -159,-253l17 -29c111,67 175,170 175,282 0,105 -58,203 -158,270z"/>
   <path class="fil0" d="M184 751l-134 0c-28,0 -50,-23 -50,-50l0 -100c0,-28 22,-50 50,-50l55 0c18,-46 56,-94 112,-142l0 -174 136 97c43,-17 81,-32 131,-32l0 34c-45,0 -80,13 -123,30l-13 5 -98 -70 0 126 -6 5c-58,49 -97,98 -111,143l-4 11 -79 0c-9,0 -17,8 -17,17l0 100c0,9 8,17 17,17l134 0 0 33z"/>
   <path class="fil0" d="M741 464c-57,-43 -136,-63 -240,-63l0 -34c112,0 197,23 260,70l-20 27z"/>
   <polygon class="fil0" points="417,1068 250,1068 250,834 284,834 284,1035 384,1035 384,918 417,918 "/>
   <polygon class="fil0" points="818,1068 651,1068 651,918 684,918 684,1035 784,1035 784,834 818,834 "/>
   <path class="fil0" d="M300 617c-46,0 -83,-37 -83,-83l33 0c0,28 23,50 50,50 28,0 50,-22 50,-50l34 0c0,46 -38,83 -84,83z"/>
   <path class="fil0" d="M951 668l0 -34c46,0 84,-37 84,-83l33 0c0,64 -52,117 -117,117z"/>
   <path class="fil0" d="M694 414l-20 -27c17,-13 27,-32 27,-53 0,-37 -30,-67 -67,-67 -37,0 -67,30 -67,67 0,14 5,28 14,40l-27 20c-13,-18 -20,-38 -20,-60 0,-55 45,-100 100,-100 55,0 100,45 100,100 0,32 -14,61 -40,80z"/>
   <polygon class="fil0" points="651,100 684,100 684,0 651,0 "/>
   <polygon class="fil0" points="584,200 617,200 617,100 584,100 "/>
   <polygon class="fil0" points="651,167 684,167 684,134 651,134 "/>
   <polygon class="fil0" points="584,67 617,67 617,33 584,33 "/>
   <polygon class="fil0" points="517,868 551,868 551,834 517,834 "/>
   <polygon class="fil0" points="584,868 617,868 617,834 584,834 "/>
   <polygon class="fil0" points="451,868 484,868 484,834 451,834 "/>
   <polygon class="fil0" points="0,1068 1068,1068 1068,1035 0,1035 "/>
  </g>
 </g>
</svg>
