<?xml version="1.0" encoding="UTF-8"?>
<!DOCTYPE svg PUBLIC "-//W3C//DTD SVG 1.1//EN" "http://www.w3.org/Graphics/SVG/1.1/DTD/svg11.dtd">
<!-- Creator: CorelDRAW X8 -->
<svg xmlns="http://www.w3.org/2000/svg" xml:space="preserve" width="29.0562mm" height="29.0563mm" version="1.1" style="shape-rendering:geometricPrecision; text-rendering:geometricPrecision; image-rendering:optimizeQuality; fill-rule:evenodd; clip-rule:evenodd"
viewBox="0 0 472 472"
 xmlns:xlink="http://www.w3.org/1999/xlink">
 <defs>
  <style type="text/css">
   <![CDATA[
    .fil0 {fill:#373435;fill-rule:nonzero}
   ]]>
  </style>
 </defs>
 <g id="Camada_x0020_1">
  <metadata id="CorelCorpID_0Corel-Layer"/>
  <g id="_2870188651904">
   <path class="fil0" d="M66 380l-14 -7c1,-2 25,-47 65,-55l50 -15c9,-4 18,-11 18,-15l0 -37 14 0 0 37c0,16 -22,27 -26,29 -1,0 -1,0 -1,0l-52 15c-33,7 -54,47 -54,48z"/>
   <path class="fil0" d="M407 380c0,-1 -21,-41 -54,-48l-52 -15c-1,0 -1,0 -1,0 -5,-2 -27,-13 -27,-29l0 -37 15 0 0 37c0,5 10,12 17,15l51 15c40,8 63,53 64,55l-13 7z"/>
   <path class="fil0" d="M199 115l0 10c0,5 -3,8 -7,8 -8,0 -15,6 -15,15l0 22c0,46 19,96 59,96 41,0 59,-50 59,-96l0 -22c0,-9 -6,-15 -14,-15l-45 0c-1,0 -2,0 -3,-1l-34 -17zm37 166c-50,0 -74,-58 -74,-111l0 -22c0,-14 10,-26 23,-29l0 -16c0,-2 1,-5 3,-6 2,-1 5,-1 7,0l43 21 43 0c16,0 29,13 29,30l0 22c0,53 -23,111 -74,111z"/>
   <path class="fil0" d="M251 347l-30 0c-2,0 -3,-1 -5,-2l-27 -28 -19 0 0 -14 22 0c2,0 4,0 5,2l28 27 23 0 27 -27c2,-2 4,-2 6,-2l22 0 0 14 -19 0 -28 28c-1,1 -3,2 -5,2z"/>
   <polygon class="fil0" points="229,413 244,413 244,399 229,399 "/>
   <polygon class="fil0" points="229,384 244,384 244,369 229,369 "/>
   <polygon class="fil0" points="229,443 244,443 244,428 229,428 "/>
   <polygon class="fil0" points="273,399 332,399 332,384 273,384 "/>
   <path class="fil0" d="M340 133l-15 0 0 -8c0,-34 -26,-62 -59,-66l0 7c0,3 -1,5 -3,6 -2,2 -5,2 -7,1l-43 -14c-36,1 -65,30 -65,66l0 8 -15 0 0 -8c0,-44 36,-81 81,-81 1,0 2,0 2,1l35 11 0 -4c0,-4 3,-8 7,-8 45,0 82,37 82,81l0 8z"/>
   <path class="fil0" d="M162 221c-28,0 -51,-23 -51,-51 0,-29 23,-52 51,-52l0 15c-20,0 -37,16 -37,37 0,20 17,37 37,37l0 14z"/>
   <path class="fil0" d="M310 221l0 -14c20,0 37,-17 37,-37 0,-21 -17,-37 -37,-37l0 -15c29,0 52,23 52,52 0,28 -23,51 -52,51z"/>
   <path class="fil0" d="M236 15c-122,0 -221,99 -221,221 0,122 99,222 221,222 122,0 222,-100 222,-222 0,-122 -100,-221 -222,-221zm0 457c-130,0 -236,-106 -236,-236 0,-130 106,-236 236,-236 130,0 236,106 236,236 0,130 -106,236 -236,236z"/>
  </g>
 </g>
</svg>
