<?xml version="1.0" encoding="UTF-8"?>
<!DOCTYPE svg PUBLIC "-//W3C//DTD SVG 1.1//EN" "http://www.w3.org/Graphics/SVG/1.1/DTD/svg11.dtd">
<!-- Creator: CorelDRAW X8 -->
<svg xmlns="http://www.w3.org/2000/svg" xml:space="preserve" width="29.0562mm" height="29.0563mm" version="1.1" style="shape-rendering:geometricPrecision; text-rendering:geometricPrecision; image-rendering:optimizeQuality; fill-rule:evenodd; clip-rule:evenodd"
viewBox="0 0 390 390"
 xmlns:xlink="http://www.w3.org/1999/xlink">
 <defs>
  <style type="text/css">
   <![CDATA[
    .fil0 {fill:#373435;fill-rule:nonzero}
   ]]>
  </style>
 </defs>
 <g id="Camada_x0020_1">
  <metadata id="CorelCorpID_0Corel-Layer"/>
  <g id="_2870188652672">
   <polygon class="fil0" points="329,61 274,61 274,6 287,6 287,49 329,49 "/>
   <polygon class="fil0" points="335,207 323,207 323,57 278,12 67,12 67,207 55,207 55,0 283,0 335,52 "/>
   <polygon class="fil0" points="335,390 55,390 55,280 67,280 67,378 323,378 323,305 335,305 "/>
   <polygon class="fil0" points="61,268 354,268 354,256 61,256 "/>
   <polygon class="fil0" points="61,232 354,232 354,220 61,220 "/>
   <path class="fil0" d="M360 256l18 0 0 -24 -18 0 0 24zm30 12l-42 0 0 -48 42 0 0 48z"/>
   <path class="fil0" d="M38 256l17 0 0 -24 -17 0 -20 12 20 12zm23 12l-24 0c-2,0 -3,0 -4,-1l-30 -18c-2,-1 -3,-3 -3,-5 0,-2 1,-4 3,-5l30 -19c1,0 2,0 4,0l24 0c3,0 6,2 6,6l0 36c0,4 -3,6 -6,6z"/>
   <polygon class="fil0" points="128,262 140,262 140,226 128,226 "/>
   <polygon class="fil0" points="335,293 238,293 238,280 323,280 323,262 335,262 "/>
   <path class="fil0" d="M213 329c-8,0 -13,-4 -16,-8 -3,-3 -5,-4 -8,-4 -3,0 -5,1 -8,4 -3,4 -8,8 -16,8 -9,0 -14,-4 -17,-8 -3,-3 -4,-4 -8,-4 -3,0 -5,1 -8,4 -3,4 -8,8 -16,8 -9,0 -13,-4 -17,-8 -3,-3 -4,-4 -8,-4l0 -12c9,0 14,4 17,8 3,3 4,4 8,4 3,0 5,-1 8,-4 3,-4 8,-8 16,-8 9,0 13,4 17,8 3,3 4,4 8,4 3,0 5,-1 8,-4 3,-4 7,-8 16,-8 9,0 13,4 17,8 3,3 4,4 7,4l0 12z"/>
   <polygon class="fil0" points="91,61 104,61 104,49 91,49 "/>
   <polygon class="fil0" points="116,61 128,61 128,49 116,49 "/>
   <polygon class="fil0" points="140,61 152,61 152,49 140,49 "/>
   <polygon class="fil0" points="91,98 299,98 299,85 91,85 "/>
   <polygon class="fil0" points="91,122 299,122 299,110 91,110 "/>
   <polygon class="fil0" points="91,146 299,146 299,134 91,134 "/>
   <polygon class="fil0" points="91,171 299,171 299,159 91,159 "/>
   <polygon class="fil0" points="91,195 189,195 189,183 91,183 "/>
   <polygon class="fil0" points="91,354 213,354 213,341 91,341 "/>
  </g>
 </g>
</svg>
