<?xml version="1.0" encoding="UTF-8"?>
<!DOCTYPE svg PUBLIC "-//W3C//DTD SVG 1.1//EN" "http://www.w3.org/Graphics/SVG/1.1/DTD/svg11.dtd">
<!-- Creator: CorelDRAW X8 -->
<svg xmlns="http://www.w3.org/2000/svg" xml:space="preserve" width="29.0562mm" height="29.0562mm" version="1.1" style="shape-rendering:geometricPrecision; text-rendering:geometricPrecision; image-rendering:optimizeQuality; fill-rule:evenodd; clip-rule:evenodd"
viewBox="0 0 390 390"
 xmlns:xlink="http://www.w3.org/1999/xlink">
 <defs>
  <style type="text/css">
   <![CDATA[
    .fil0 {fill:#373435;fill-rule:nonzero}
   ]]>
  </style>
 </defs>
 <g id="Camada_x0020_1">
  <metadata id="CorelCorpID_0Corel-Layer"/>
  <g id="_2870250612448">
   <path class="fil0" d="M69 255l66 67c32,-21 237,-159 243,-310 -151,6 -289,212 -309,243zm65 80c-1,0 -3,0 -4,-1l-73 -74c-2,-2 -3,-5 -1,-7 6,-10 156,-253 328,-253 4,0 6,3 6,6 0,172 -242,322 -253,328 -1,1 -2,1 -3,1z"/>
   <path class="fil0" d="M104 341c-2,0 -3,0 -5,-1l-48 -49c-3,-2 -3,-6 0,-9l18 -18 8 9 -13 14 40 40 14 -14 8 8 -18 19c-1,1 -3,1 -4,1z"/>
   <path class="fil0" d="M6 390c-3,0 -6,-2 -6,-6 0,-2 0,-45 38,-83l9 8c-26,26 -33,56 -34,68 13,-1 42,-8 68,-34l9 9c-38,38 -82,38 -84,38z"/>
   <path class="fil0" d="M280 91c-10,0 -18,9 -18,19 0,10 8,18 18,18 11,0 19,-8 19,-18 0,-10 -8,-19 -19,-19zm0 49c-16,0 -30,-13 -30,-30 0,-17 14,-31 30,-31 17,0 31,14 31,31 0,17 -14,30 -31,30z"/>
   <path class="fil0" d="M226 146c-10,0 -19,9 -19,19 0,10 9,18 19,18 10,0 18,-8 18,-18 0,-10 -8,-19 -18,-19zm0 49c-17,0 -31,-14 -31,-30 0,-17 14,-31 31,-31 16,0 30,14 30,31 0,16 -14,30 -30,30z"/>
   <path class="fil0" d="M171 201c-10,0 -19,8 -19,19 0,10 9,18 19,18 10,0 18,-8 18,-18 0,-11 -8,-19 -18,-19zm0 49c-17,0 -31,-14 -31,-30 0,-17 14,-31 31,-31 17,0 30,14 30,31 0,16 -13,30 -30,30z"/>
   <path class="fil0" d="M226 390l-61 0c-4,0 -6,-2 -6,-6l0 -49 12 0 0 43 51 0 102 -228 11 5 -104 232c-1,2 -3,3 -5,3z"/>
   <path class="fil0" d="M55 232l-49 0c-3,0 -6,-3 -6,-6l0 -61c0,-3 1,-5 4,-6l231 -104 5 12 -228 102 0 51 43 0 0 12z"/>
   <path class="fil0" d="M372 73c-30,0 -55,-24 -55,-55l12 0c0,24 19,43 43,43l0 12z"/>
  </g>
 </g>
</svg>
